#!OML:ASF X:\für Bonn\!DataBase\2005_08_12_Daniel\c3d\Daniel.ASF
:FULLY-SPECIFIED
:DEGREES
201
root 2.4891 17.6551 17.5835 -4.16371 20.6247 0.796645
lowerback 6.34181 4.33847 3.3079
upperback 0.81638 5.90298 -7.28266
thorax -1.57913 2.98212 -9.9806
lowerneck 3.3073 -8.30532 -4.96608
upperneck 9.69034 -11.5285 5.10531
head 3.23026 -5.76444 2.27494
rclavicle -2.59911e-014 -1.27222e-014
rhumerus 59.1652 -24.5301 -76.3097
rradius 12.073
rwrist 41.4799
rhand -6.32422 11.1446
rfingers 7.12502
rthumb 19.5207 -17.8955
lclavicle -2.59911e-014 -1.27222e-014
lhumerus -31.6305 34.2432 65.604
lradius 16.764
lwrist -38.4907
lhand -9.81364 -6.96006
lfingers 7.12502
lthumb 16.1631 22.386
rfemur 11.3809 15.1711 22.9132
rtibia 12.8562
rfoot -30.5348 -31.4946
rtoes -8.82185
lfemur -1.64844 -19.6249 -19.0506
ltibia 26.9768
lfoot -20.4884 4.51924
ltoes -15.5951
202
root 2.49097 17.6549 17.5819 -4.16681 20.5561 0.794438
lowerback 6.27798 4.29685 3.24152
upperback 0.823887 5.84257 -7.25435
thorax -1.55737 2.95222 -9.90095
lowerneck 3.27738 -8.25485 -4.95017
upperneck 9.68343 -11.4578 5.08232
head 3.22592 -5.72902 2.26588
rclavicle -8.25453e-014 3.97569e-014
rhumerus 57.206 -22.822 -72.6781
rradius 13.1081
rwrist 36.7234
rhand -6.69894 11.1673
rfingers 7.12502
rthumb 19.1603 -17.9089
lclavicle -8.25453e-014 3.97569e-014
lhumerus -31.7292 34.3955 65.526
lradius 16.7696
lwrist -38.6304
lhand -9.83614 -6.90342
lfingers 7.12502
lthumb 16.1414 22.4444
rfemur 11.3577 15.1894 22.9016
rtibia 12.8711
rfoot -30.4759 -31.4718
rtoes -8.87634
lfemur -1.63371 -19.5537 -19.0487
ltibia 26.9656
lfoot -20.487 4.51817
ltoes -15.595
203
root 2.49365 17.6546 17.5804 -4.17504 20.4808 0.792919
lowerback 6.23164 4.26549 3.17508
upperback 0.818936 5.79541 -7.22255
thorax -1.55603 2.92778 -9.82069
lowerneck 3.26133 -8.20894 -4.92102
upperneck 9.68932 -11.393 5.04848
head 3.22209 -5.69641 2.25114
rclavicle 3.63776e-014 -2.8625e-014
rhumerus 55.5807 -21.3258 -69.7551
rradius 14.1624
rwrist 32.6093
rhand -7.19571 11.1745
rfingers 7.12502
rthumb 18.6826 -17.9483
lclavicle 3.63776e-014 -2.8625e-014
lhumerus -31.753 34.1242 65.6465
lradius 16.814
lwrist -38.3054
lhand -9.91175 -6.77203
lfingers 7.12502
lthumb 16.0686 22.5817
rfemur 11.3455 15.2095 22.8814
rtibia 12.8769
rfoot -30.4264 -31.4279
rtoes -8.895
lfemur -1.59598 -19.5769 -19.0745
ltibia 26.9544
lfoot -20.5006 4.60368
ltoes -15.5426
204
root 2.49575 17.6546 17.5795 -4.17523 20.418 0.793721
lowerback 6.15723 4.2162 3.08314
upperback 0.82766 5.72318 -7.18899
thorax -1.53205 2.89198 -9.71898
lowerneck 3.18701 -8.16305 -4.85468
upperneck 9.71571 -11.3233 4.97046
head 3.22958 -5.6602 2.21262
rclavicle 2.25621e-014 -4.77083e-015
rhumerus 54.1363 -19.9384 -67.2637
rradius 15.3542
rwrist 28.85
rhand -7.54521 11.2013
rfingers 7.12502
rthumb 18.3464 -17.9536
lclavicle 2.25621e-014 -4.77083e-015
lhumerus -31.8224 34.2947 65.5659
lradius 16.77
lwrist -38.424
lhand -9.92713 -6.6883
lfingers 7.12502
lthumb 16.0538 22.6666
rfemur 11.3509 15.3167 22.8948
rtibia 12.8733
rfoot -30.5022 -31.4514
rtoes -8.86204
lfemur -1.57287 -19.5783 -19.0956
ltibia 26.9498
lfoot -20.5116 4.67059
ltoes -15.541
205
root 2.49878 17.6545 17.579 -4.18812 20.3568 0.780756
lowerback 6.08351 4.17897 3.04951
upperback 0.840866 5.67164 -7.17181
thorax -1.49203 2.86755 -9.67008
lowerneck 3.18972 -8.12109 -4.82419
upperneck 9.68696 -11.2657 4.96606
head 3.21306 -5.631 2.20856
rclavicle -3.08116e-015 7.31528e-014
rhumerus 52.8452 -18.7393 -65.1355
rradius 16.5573
rwrist 25.3943
rhand -7.97067 11.2242
rfingers 7.12502
rthumb 17.9371 -17.9687
lclavicle -3.08116e-015 7.31528e-014
lhumerus -31.863 34.2623 65.5515
lradius 16.7633
lwrist -38.4083
lhand -10.0163 -6.66718
lfingers 7.12502
lthumb 15.968 22.6947
rfemur 11.3557 15.3668 22.9059
rtibia 12.8804
rfoot -30.497 -31.441
rtoes -8.86573
lfemur -1.54306 -19.5594 -19.0939
ltibia 26.9375
lfoot -20.5228 4.68503
ltoes -15.4447
206
root 2.5012 17.6549 17.5793 -4.17427 20.314 0.778732
lowerback 5.99321 4.12502 2.95845
upperback 0.832256 5.59279 -7.14483
thorax -1.47723 2.82753 -9.57566
lowerneck 3.17518 -8.06685 -4.75928
upperneck 9.70597 -11.1873 4.90117
head 3.20792 -5.59114 2.17773
rclavicle -4.1546e-014 7.95139e-015
rhumerus 51.5369 -17.4869 -63.0482
rradius 17.889
rwrist 21.981
rhand -8.27757 11.2181
rfingers 7.12502
rthumb 17.6417 -18.0016
lclavicle -4.1546e-014 7.95139e-015
lhumerus -31.9599 34.2952 65.4866
lradius 16.7776
lwrist -38.4452
lhand -9.99467 -6.57694
lfingers 7.12502
lthumb 15.9888 22.7832
rfemur 11.3518 15.4352 22.9101
rtibia 12.8631
rfoot -30.5025 -31.4637
rtoes -8.85863
lfemur -1.54062 -19.5766 -19.1063
ltibia 26.9351
lfoot -20.5323 4.74754
ltoes -15.4431
